<?xml version="1.0" standalone="no"?>
<!DOCTYPE svg PUBLIC "-//W3C//DTD SVG 20010904//EN"
 "http://www.w3.org/TR/2001/REC-SVG-20010904/DTD/svg10.dtd">
<svg version="1.0" xmlns="http://www.w3.org/2000/svg"
 width="1280.000000pt" height="682.000000pt" viewBox="0 0 1280.000000 682.000000"
 preserveAspectRatio="xMidYMid meet">
<metadata>
Created by potrace 1.15, written by Peter Selinger 2001-2017
</metadata>
<g transform="translate(0.000000,682.000000) scale(0.100000,-0.100000)"
fill="#a01fb7" stroke="none">
<path d="M6505 5750 c-227 -36 -375 -141 -375 -266 l0 -38 -27 26 c-59 55
-138 78 -199 58 -21 -7 -56 -30 -80 -52 -108 -99 -121 -293 -32 -461 48 -90
165 -208 283 -286 l101 -66 -30 -20 c-35 -23 -46 -68 -24 -98 20 -27 71 -38
104 -21 15 8 28 13 30 11 1 -1 16 -33 33 -70 25 -55 29 -77 26 -122 -4 -50 -1
-59 26 -90 17 -19 39 -37 49 -40 18 -6 19 -8 4 -31 -24 -36 -11 -66 56 -132
45 -43 62 -68 66 -94 6 -32 4 -36 -23 -41 -16 -3 -45 -19 -66 -36 -21 -16 -51
-33 -67 -36 -16 -4 -44 -20 -62 -37 -18 -17 -55 -43 -82 -57 -32 -17 -55 -38
-68 -62 -20 -39 -38 -129 -38 -191 0 -45 23 -42 -243 -25 -158 11 -180 11
-187 -3 -4 -8 -48 -106 -98 -216 l-90 -202 -21 -418 c-12 -231 -21 -427 -21
-436 0 -17 -15 -18 -179 -18 l-179 0 -26 35 c-19 24 -37 36 -64 41 -82 15 -95
45 -102 239 -7 195 -13 211 -90 242 -45 18 -56 27 -62 52 -10 35 -38 57 -91
72 -25 6 -41 18 -47 33 -12 32 -55 64 -96 72 -28 5 -34 11 -34 30 0 46 27 89
86 138 32 27 67 59 76 70 24 29 23 73 -2 88 -11 7 -20 16 -20 20 0 4 29 21 65
37 69 32 71 34 78 127 3 35 17 74 43 123 40 72 54 86 54 52 0 -26 22 -42 67
-48 107 -14 131 125 25 148 l-27 6 30 13 c220 98 312 156 407 258 63 67 95
127 119 223 25 98 22 172 -10 245 -24 52 -80 118 -121 138 -77 40 -184 24
-244 -35 l-38 -39 7 38 c19 106 17 152 -5 186 -96 139 -425 248 -750 249 -155
0 -255 -18 -330 -59 -73 -39 -84 -62 -85 -169 -2 -125 -2 -124 -30 -83 -32 47
-115 88 -193 95 -103 10 -203 -52 -260 -162 -24 -45 -27 -61 -27 -155 0 -125
24 -206 86 -296 96 -136 190 -223 334 -309 84 -51 118 -76 111 -82 -2 -3 -13
1 -24 8 -24 15 -66 5 -92 -21 -68 -68 56 -171 133 -110 15 12 27 29 27 38 0
26 15 1 39 -65 26 -69 32 -126 19 -163 -15 -42 -1 -67 57 -102 65 -38 74 -54
40 -70 -33 -15 -42 -51 -20 -84 9 -15 41 -52 70 -84 42 -46 54 -66 59 -103 4
-26 5 -51 2 -56 -3 -5 -27 -12 -53 -16 -38 -5 -55 -15 -83 -45 -28 -30 -47
-40 -91 -49 -59 -12 -81 -28 -98 -72 -8 -22 -17 -27 -55 -31 -91 -11 -114 -43
-146 -206 -11 -54 -24 -120 -30 -148 -14 -67 -61 -120 -116 -129 -63 -11 -93
-26 -112 -57 l-17 -29 -185 5 c-102 3 -280 8 -397 12 l-211 5 -6 -28 c-3 -15
-42 -284 -86 -598 -44 -314 -85 -597 -92 -630 l-11 -60 -43 -3 c-106 -6 -392
-86 -436 -122 l-23 -19 37 -15 c77 -33 156 -47 283 -52 72 -3 138 -7 148 -9
18 -3 1287 26 2812 65 788 20 2081 51 2925 70 1593 35 2205 51 2212 58 7 7
-114 1158 -123 1167 -5 4 -670 24 -826 25 -36 0 -43 4 -62 35 -16 28 -28 36
-63 41 -31 5 -53 18 -79 43 -34 34 -37 42 -54 156 -22 151 -42 201 -89 220
-20 8 -44 15 -55 15 -14 0 -23 9 -27 25 -8 34 -50 65 -86 65 -22 0 -39 11 -66
40 -26 29 -46 42 -74 46 -47 8 -51 14 -43 62 4 26 24 58 65 105 65 74 74 106
38 131 -18 13 -19 17 -8 31 8 9 30 25 51 35 43 23 51 39 43 90 -4 22 -4 54 0
73 6 34 7 34 51 29 54 -6 85 16 85 57 0 35 -10 48 -50 65 l-35 14 34 19 c203
110 329 253 362 411 23 114 -12 235 -91 306 -58 52 -117 64 -204 39 -17 -5
-18 0 -11 80 8 102 -5 136 -65 167 -83 42 -156 54 -330 55 -177 0 -265 -12
-395 -52 -100 -32 -146 -55 -194 -99 -38 -34 -40 -34 -83 -23 -57 16 -106 6
-157 -31 -141 -102 -151 -323 -23 -506 76 -107 168 -186 335 -288 29 -18 36
-36 14 -36 -20 0 -47 -33 -47 -59 0 -34 43 -71 83 -71 31 0 35 -4 62 -59 18
-39 29 -77 29 -109 1 -58 15 -77 73 -104 49 -23 52 -32 22 -57 -30 -24 -20
-47 56 -120 36 -35 68 -75 71 -90 3 -14 7 -34 9 -43 2 -11 -5 -20 -19 -23 -55
-16 -77 -30 -95 -61 -12 -21 -28 -34 -40 -34 -38 0 -70 -23 -81 -56 -9 -27
-19 -36 -48 -44 -74 -20 -83 -40 -90 -197 -3 -68 -6 -122 -8 -120 -2 1 -12
241 -23 531 -12 291 -22 531 -24 532 -2 2 -212 17 -467 34 -272 18 -467 35
-471 41 -3 6 -9 54 -13 107 -3 53 -11 115 -17 137 -12 41 -69 105 -95 105 -8
0 -32 18 -55 39 -22 22 -57 45 -77 52 -20 6 -48 22 -61 35 -13 13 -38 29 -57
36 -53 19 -46 47 36 133 55 58 70 81 70 104 0 16 -4 33 -10 36 -18 11 -11 22
21 35 44 19 63 54 64 119 0 32 9 76 20 103 19 47 35 62 35 35 0 -24 35 -47 72
-47 43 0 68 25 68 68 0 38 -37 67 -75 60 -14 -3 -25 -4 -25 -2 0 1 51 27 113
57 238 116 367 295 355 493 -4 82 -35 150 -90 199 -67 61 -149 68 -237 19
l-44 -24 7 57 c4 32 9 74 12 93 14 122 -101 229 -304 281 -89 23 -261 32 -347
19z m-447 -366 c30 -22 72 -97 72 -128 0 -18 -1 -18 -18 -3 -23 21 -66 22 -82
1 -8 -8 -13 -29 -13 -46 0 -54 72 -91 103 -53 22 26 30 17 30 -34 0 -51 33
-314 46 -365 7 -28 5 -27 -57 22 -136 107 -216 201 -274 323 -62 130 -57 205
19 280 29 29 35 30 89 27 36 -3 67 -12 85 -24z m1269 -188 c137 -151 80 -362
-135 -492 -42 -26 -95 -59 -118 -74 l-41 -27 23 79 c13 43 33 142 45 219 21
129 23 138 39 124 9 -8 28 -15 43 -15 38 0 59 26 55 69 -2 29 -8 37 -31 45
-20 7 -34 7 -47 -2 -18 -11 -20 -9 -20 14 0 37 27 89 53 103 42 21 89 6 134
-43z m-1228 12 c7 -19 5 -24 -11 -26 -22 -4 -48 14 -48 34 0 24 50 17 59 -8z
m1117 -139 c12 -20 -13 -33 -41 -21 -22 10 -24 15 -15 32 9 16 15 18 30 10 10
-6 22 -15 26 -21z m-3417 -396 c46 -35 71 -81 71 -135 l0 -49 -29 22 c-20 15
-37 20 -54 15 -58 -14 -74 -65 -34 -111 30 -35 92 -38 118 -6 17 21 18 20 23
-41 3 -35 8 -117 11 -183 4 -66 14 -166 24 -223 l17 -102 -41 39 c-22 21 -67
57 -100 81 -129 92 -223 203 -273 324 -34 83 -36 183 -4 244 30 57 90 122 127
139 39 17 110 10 144 -14z m2399 -65 c20 -20 14 -40 -10 -36 -15 2 -24 11 -26
26 -4 24 16 30 36 10z m-910 -72 c66 -34 115 -127 115 -216 0 -135 -146 -316
-343 -425 -58 -32 -115 -67 -127 -78 -29 -26 -29 -17 1 71 24 71 87 333 102
422 7 44 7 45 15 15 11 -37 34 -55 73 -55 39 0 66 26 66 63 0 56 -50 84 -102
56 -19 -10 -20 -9 -13 23 22 103 131 167 213 124z m1800 -34 c2 -14 -2 -22
-12 -22 -17 0 -39 34 -29 44 14 13 38 0 41 -22z m-3247 -39 c14 -38 -18 -56
-62 -33 -35 19 -16 60 28 60 16 0 27 -8 34 -27z m1313 -106 c36 -26 -12 -69
-54 -47 -19 10 -19 12 -4 35 18 28 32 31 58 12z m2803 -88 c50 -19 83 -58 83
-101 0 -22 -5 -38 -12 -38 -23 0 -48 -34 -48 -65 0 -36 12 -50 53 -60 21 -6
27 -13 27 -34 0 -14 13 -91 29 -171 16 -80 27 -147 24 -150 -10 -11 -162 160
-201 225 -93 159 -111 314 -45 387 18 20 49 23 90 7z m1168 -141 c126 -127
109 -355 -37 -502 -30 -29 -64 -59 -77 -66 -22 -12 -24 -11 -17 11 5 21 28
187 42 307 3 27 10 42 19 42 22 0 48 46 40 70 -4 11 -17 27 -29 35 -20 14 -23
22 -19 68 8 94 16 97 78 35z m-1091 -34 c16 -6 23 -54 8 -54 -14 0 -32 23 -32
42 0 20 1 21 24 12z m1026 -130 c0 -8 -4 -14 -10 -14 -5 0 -10 9 -10 21 0 11
5 17 10 14 6 -3 10 -13 10 -21z m-5156 -180 c20 -19 20 -28 1 -44 -23 -19 -50
-8 -50 20 0 39 23 51 49 24z m1066 -89 c0 -29 -31 -50 -48 -33 -23 23 -5 58
30 58 12 0 18 -8 18 -25z m3215 -244 c5 -17 4 -22 -6 -19 -8 3 -15 18 -17 34
-4 33 11 24 23 -15z m795 -46 c0 -14 -4 -25 -10 -25 -5 0 -10 11 -10 25 0 14
5 25 10 25 6 0 10 -11 10 -25z"/>
</g>
</svg>
