<?xml version="1.0" standalone="no"?>
<!DOCTYPE svg PUBLIC "-//W3C//DTD SVG 20010904//EN"
 "http://www.w3.org/TR/2001/REC-SVG-20010904/DTD/svg10.dtd">
<svg version="1.0" xmlns="http://www.w3.org/2000/svg"
 width="1050.000000pt" height="1280.000000pt" viewBox="0 0 1050.000000 1280.000000"
 preserveAspectRatio="xMidYMid meet">
<metadata>
Created by potrace 1.15, written by Peter Selinger 2001-2017
</metadata>
<g transform="translate(0.000000,1280.000000) scale(0.100000,-0.100000)"
fill="#b269bf" stroke="none">
<path d="M5504 12780 c-31 -12 -34 -20 -36 -105 -1 -42 -5 -78 -9 -81 -3 -2
-2 -23 3 -46 5 -24 10 -56 11 -73 1 -16 6 -36 10 -42 5 -8 4 -13 -2 -13 -6 0
-11 -9 -11 -21 0 -11 5 -17 10 -14 14 8 13 -1 -2 -25 -11 -17 -10 -22 2 -30
13 -9 13 -11 1 -19 -8 -5 -15 -17 -16 -28 -1 -10 -6 -26 -10 -37 -5 -11 -3
-21 5 -26 7 -5 10 -15 6 -25 -3 -10 -1 -25 6 -33 11 -13 10 -15 -4 -9 -19 7
-25 -8 -8 -18 6 -4 4 -12 -5 -21 -8 -9 -12 -21 -8 -27 4 -6 6 -24 5 -39 -1
-15 2 -28 7 -28 6 0 6 -11 -1 -30 -6 -20 -7 -35 0 -43 12 -15 22 -67 13 -67
-12 0 -6 -107 7 -122 9 -11 9 -17 0 -26 -9 -9 -7 -16 5 -30 16 -17 16 -20 2
-32 -14 -12 -13 -16 7 -38 15 -17 18 -23 7 -20 -23 9 -19 -90 4 -107 15 -11
16 -13 2 -19 -8 -3 -15 -1 -15 5 0 6 -5 7 -11 3 -8 -5 -8 -9 1 -14 8 -5 10
-18 6 -34 -5 -19 -2 -28 10 -33 12 -5 13 -7 2 -14 -9 -6 -4 -11 20 -20 17 -6
32 -15 32 -20 0 -12 -6 -11 -41 6 -30 16 -49 13 -49 -8 0 -9 2 -9 8 0 6 10 12
10 28 -2 17 -13 17 -14 2 -15 -11 0 -18 -8 -18 -20 0 -16 7 -20 38 -20 34 -1
35 -2 19 -15 -11 -7 -25 -11 -33 -8 -21 8 -17 -15 5 -29 16 -9 17 -16 10 -37
-8 -21 -6 -28 12 -42 12 -9 19 -21 15 -27 -3 -6 -2 -13 4 -17 5 -3 10 -10 10
-16 0 -14 -28 -11 -33 4 -3 6 -6 0 -6 -15 -1 -18 4 -28 13 -28 16 0 29 -27 15
-32 -5 -2 -1 -8 10 -15 16 -10 19 -9 19 13 0 13 -4 24 -9 24 -16 0 -10 28 7
34 11 4 14 12 9 24 -12 28 -14 91 -4 97 13 8 11 52 -3 78 -6 12 -12 47 -14 77
-1 30 -5 80 -9 110 -3 30 -1 84 6 119 8 41 8 65 2 70 -6 3 -13 26 -16 51 -3
25 -9 53 -12 62 -4 10 1 24 14 35 21 18 27 43 14 57 -8 8 -9 17 -12 86 -4 98
-4 99 4 154 6 38 -9 71 -26 60 -5 -3 -9 -1 -9 5 0 5 5 11 12 13 13 5 28 107
17 114 -5 3 -4 17 2 31 6 16 6 29 0 32 -10 7 -18 92 -9 106 3 6 4 71 2 145 -2
74 -4 143 -4 153 0 19 -5 20 -36 7z"/>
<path d="M7990 11764 c0 -8 5 -12 10 -9 6 4 8 11 5 16 -9 14 -15 11 -15 -7z"/>
<path d="M2945 11750 c3 -5 11 -10 16 -10 6 0 7 5 4 10 -3 6 -11 10 -16 10 -6
0 -7 -4 -4 -10z"/>
<path d="M7935 11743 c-5 -10 -7 -26 -6 -35 2 -12 -5 -18 -18 -18 -14 0 -21
-9 -26 -31 -4 -16 -24 -49 -46 -71 -29 -31 -39 -49 -39 -75 0 -21 -6 -36 -15
-39 -8 -4 -15 -14 -15 -24 0 -11 -4 -21 -9 -24 -5 -3 -14 -26 -20 -51 -6 -25
-16 -45 -21 -45 -6 0 -10 -7 -10 -15 0 -14 -14 -33 -72 -99 -18 -19 -24 -33
-17 -37 8 -4 8 -12 0 -25 -6 -11 -19 -40 -31 -66 -16 -37 -25 -47 -47 -50 -22
-2 -29 -9 -33 -33 -7 -39 -40 -115 -50 -115 -4 0 -13 -15 -21 -32 -7 -18 -28
-51 -46 -74 -30 -38 -31 -42 -17 -62 9 -13 12 -22 7 -21 -21 4 -32 -4 -64 -48
-18 -27 -33 -50 -31 -53 1 -3 -5 -13 -14 -23 -8 -11 -13 -21 -10 -24 3 -3 -3
-18 -14 -33 -11 -16 -20 -35 -20 -44 0 -9 -4 -16 -9 -16 -10 0 -66 -82 -63
-92 1 -5 -3 -8 -10 -8 -6 0 -8 -3 -5 -6 6 -7 -32 -80 -65 -123 -10 -13 -18
-32 -18 -41 0 -25 48 -33 67 -11 34 40 63 80 63 88 0 5 9 18 19 30 23 24 46
69 55 106 3 15 11 27 16 27 6 0 10 11 10 25 0 14 5 24 11 22 6 -1 14 4 16 11
3 6 0 12 -6 12 -6 0 -11 5 -11 10 0 6 8 10 19 10 10 0 24 7 31 15 9 10 9 15 1
15 -22 0 -11 18 15 24 16 4 24 12 21 20 -3 8 3 16 15 19 13 4 19 11 15 21 -4
9 0 22 8 30 8 8 15 23 15 33 0 15 2 16 10 3 8 -12 10 -11 10 6 0 13 8 24 20
27 11 3 20 14 20 25 0 11 6 25 14 32 8 6 12 18 9 26 -3 8 0 14 7 14 6 0 8 5 4
12 -5 8 -2 9 9 5 13 -5 17 0 17 22 0 32 23 84 33 74 4 -3 7 1 7 11 0 9 6 19
14 22 15 6 32 58 27 82 -1 7 5 15 14 18 19 8 19 33 -1 62 -17 25 -7 31 11 5
18 -24 37 -7 30 28 -4 18 -3 29 4 29 6 0 11 -8 12 -17 0 -10 5 -4 10 13 5 17
16 37 24 44 18 15 20 51 4 67 -9 9 -7 11 9 7 26 -7 63 28 51 47 -12 19 -11 27
4 26 34 -1 57 4 57 13 0 6 -5 9 -12 8 -6 -2 -14 5 -16 14 -2 12 1 16 11 12 8
-3 17 2 21 13 4 10 3 19 -2 21 -5 1 -18 9 -28 17 -18 14 -18 14 2 15 11 0 26
-6 33 -12 11 -11 13 -7 7 21 -4 25 -2 39 10 52 9 10 14 25 10 34 -8 22 5 76
18 72 6 -3 10 -11 8 -18 -2 -8 7 -3 20 10 16 16 19 25 11 28 -15 5 -17 30 -4
35 5 2 4 11 -4 21 -12 17 -13 17 -20 0z m-105 -347 c-1 -6 -10 0 -20 13 -11
13 -20 28 -20 35 1 6 10 0 20 -13 11 -13 20 -28 20 -35z"/>
<path d="M2959 11703 c-22 -5 -13 -44 10 -41 11 2 16 -4 16 -19 0 -12 15 -37
33 -55 17 -19 37 -51 45 -73 9 -28 23 -44 45 -55 17 -8 35 -24 38 -35 7 -21
23 -41 63 -78 13 -12 29 -28 35 -35 6 -7 19 -21 29 -30 9 -9 17 -21 17 -26 0
-5 10 -25 22 -45 13 -20 23 -38 24 -41 4 -23 19 -40 31 -36 7 3 16 -1 20 -10
3 -8 23 -33 45 -55 36 -36 45 -57 38 -84 -6 -22 1 -33 25 -39 14 -4 25 -11 25
-17 0 -5 14 -23 30 -39 17 -16 30 -35 30 -42 0 -7 11 -23 23 -34 12 -12 34
-45 47 -73 22 -46 28 -51 51 -47 22 4 26 2 22 -13 -5 -20 29 -84 64 -120 13
-13 23 -30 23 -37 0 -8 6 -14 13 -14 6 0 22 -16 35 -35 12 -19 27 -35 32 -35
6 0 10 -6 10 -14 0 -17 60 -116 70 -116 4 0 24 -26 46 -57 58 -87 81 -108 99
-93 8 7 15 20 15 29 0 21 -40 99 -62 123 -10 10 -19 23 -19 28 -1 6 -2 14 -3
19 0 6 -25 32 -54 60 -29 28 -51 55 -47 61 3 6 -3 10 -15 10 -15 0 -20 5 -17
14 7 17 -11 36 -27 30 -7 -3 -12 6 -11 23 0 18 -5 28 -15 29 -8 1 -19 2 -24 3
-6 0 -5 6 1 12 12 12 5 52 -8 43 -5 -3 -9 3 -9 14 0 11 -11 27 -24 38 -14 10
-23 22 -20 26 3 4 -2 11 -11 14 -13 5 -14 9 -4 15 11 6 10 9 -4 15 -9 3 -17
14 -17 24 0 20 -52 80 -69 80 -9 0 -15 19 -13 41 1 8 -39 45 -44 42 -2 -2 -13
6 -24 17 -11 11 -15 20 -8 20 12 0 10 2 -66 84 -25 27 -46 53 -46 57 0 4 -11
10 -24 13 -19 5 -22 11 -18 31 4 22 1 25 -27 25 -17 0 -31 5 -31 11 0 7 9 9
23 6 20 -5 19 -4 -5 14 -16 12 -28 26 -28 33 0 20 -34 46 -61 47 l-24 0 23 11
c12 6 22 15 22 20 0 5 -4 7 -9 4 -9 -6 -26 22 -23 37 2 7 -14 11 -37 7 -8 -1
-12 4 -8 14 5 12 -1 13 -30 9 -26 -4 -34 -3 -29 5 4 7 20 12 36 12 26 0 46 21
33 34 -10 10 -25 7 -18 -4 3 -5 -4 -10 -16 -10 -16 0 -19 3 -11 13 7 8 7 17
-2 29 -12 17 -14 17 -31 -2 -10 -11 -22 -20 -27 -20 -14 0 -9 30 7 36 23 9 18
21 -14 32 -16 6 -32 20 -36 31 -4 14 -15 21 -31 21 -14 0 -27 7 -30 15 -4 8
-13 15 -21 15 -8 0 -13 6 -10 13 2 6 11 11 20 11 14 -1 14 1 1 21 -10 16 -21
21 -39 17 -20 -3 -24 -1 -19 12 3 9 5 15 3 15 -2 -1 -11 -3 -20 -6z m451 -553
c0 -5 -5 -10 -11 -10 -5 0 -7 5 -4 10 3 6 8 10 11 10 2 0 4 -4 4 -10z"/>
<path d="M5526 10985 c4 -8 8 -15 10 -15 2 0 4 7 4 15 0 8 -4 15 -10 15 -5 0
-7 -7 -4 -15z"/>
<path d="M1450 10280 c0 -6 7 -10 15 -10 8 0 15 2 15 4 0 2 -7 6 -15 10 -8 3
-15 1 -15 -4z"/>
<path d="M1478 10232 c-15 -3 -16 -6 -5 -17 8 -7 22 -13 33 -12 12 1 19 -4 19
-16 0 -12 13 -24 34 -33 18 -8 49 -32 68 -54 28 -31 42 -40 68 -40 18 0 35 -6
38 -12 4 -11 60 -44 107 -63 34 -14 64 -35 112 -81 31 -30 58 -48 70 -46 10 2
18 -1 18 -7 0 -5 13 -12 29 -16 16 -3 35 -13 41 -21 7 -7 16 -11 21 -9 4 3 13
-13 19 -35 8 -29 16 -40 30 -40 23 0 83 -32 123 -66 16 -13 33 -24 38 -24 5 0
25 -18 45 -40 35 -39 38 -40 60 -25 22 14 24 14 24 -4 0 -18 73 -86 93 -86 5
0 14 -8 22 -18 7 -10 17 -17 21 -16 15 4 72 -33 122 -78 26 -24 56 -46 67 -49
11 -4 45 -25 75 -48 30 -22 58 -40 63 -38 4 1 7 -2 7 -8 0 -20 31 -10 39 13
11 30 7 37 -44 77 -25 19 -62 50 -83 68 -20 18 -49 36 -64 39 -15 3 -36 14
-47 24 -11 11 -27 19 -36 19 -9 0 -14 4 -10 9 3 6 -4 15 -16 21 -15 8 -19 9
-15 1 4 -6 2 -11 -3 -11 -6 0 -11 9 -11 20 0 19 -9 24 -36 21 -7 -1 -15 10
-18 24 -4 14 -12 24 -19 22 -6 -1 -11 3 -10 10 3 13 -52 35 -62 25 -4 -4 -5 0
-3 8 2 9 -4 14 -14 14 -21 -2 -24 12 -5 19 6 3 2 6 -10 6 -16 1 -23 7 -23 21
0 13 -7 20 -18 20 -11 0 -27 9 -37 20 -9 10 -20 19 -24 18 -20 -2 -31 4 -31
17 0 8 -7 16 -15 16 -28 3 -33 4 -41 12 -4 4 -15 7 -25 7 -12 0 -16 5 -13 15
4 10 0 15 -10 15 -9 0 -19 6 -22 14 -3 7 -24 19 -47 27 -23 7 -47 20 -53 28
-7 8 -20 12 -33 8 -12 -3 -19 -1 -15 4 11 18 -15 36 -43 31 -18 -3 -24 -1 -19
7 4 6 12 8 18 5 7 -4 8 -2 4 4 -4 7 -15 12 -25 12 -10 0 -26 9 -37 21 -13 14
-27 19 -46 17 -32 -5 -37 6 -10 22 11 7 12 10 2 7 -8 -2 -23 5 -32 16 -11 12
-25 17 -37 14 -15 -3 -18 -1 -13 11 5 14 2 13 -18 -1 -14 -9 -31 -17 -40 -17
-9 0 -3 8 14 19 37 25 53 51 31 51 -8 0 -14 -5 -12 -12 1 -6 -6 -14 -17 -16
-12 -2 -16 0 -11 7 4 7 1 19 -6 27 -11 13 -15 11 -35 -13 -23 -27 -23 -27 -24
-5 0 12 5 22 10 22 6 0 10 5 10 11 0 7 -11 9 -29 6 -21 -4 -34 -1 -46 13 -10
11 -21 17 -26 14 -17 -10 -79 8 -79 23 0 10 6 13 18 9 12 -5 10 -1 -7 16 -16
16 -25 19 -28 11 -5 -14 -29 -18 -35 -5 -1 4 -11 6 -20 4z"/>
<path d="M5515 10130 c-3 -5 -1 -10 4 -10 6 0 11 5 11 10 0 6 -2 10 -4 10 -3
0 -8 -4 -11 -10z"/>
<path d="M5623 10113 c-43 -4 -54 -18 -32 -40 20 -20 -170 -15 -201 5 -34 22
-149 32 -220 18 -19 -4 -91 -14 -159 -22 -155 -18 -242 -32 -250 -39 -3 -3 1
-11 9 -16 11 -7 6 -8 -17 -4 -17 3 -40 2 -50 -4 -28 -16 -128 -41 -162 -41
-17 0 -31 -4 -31 -10 0 -5 -7 -10 -15 -10 -8 0 -15 -5 -15 -11 0 -8 -13 -9
-39 -5 -31 5 -46 1 -75 -19 -20 -13 -73 -42 -119 -64 -107 -51 -190 -103 -238
-146 -21 -19 -57 -44 -81 -56 -24 -11 -56 -34 -73 -49 -16 -15 -43 -31 -60
-35 -34 -7 -65 -32 -65 -51 0 -7 -18 -31 -39 -55 -31 -32 -45 -40 -62 -36 -18
5 -33 -5 -73 -46 -28 -29 -62 -60 -76 -69 -15 -11 -19 -18 -11 -18 8 0 25 10
38 22 13 12 25 19 28 16 13 -13 -49 -67 -109 -97 -46 -23 -77 -46 -106 -84
-23 -29 -46 -52 -50 -52 -10 0 -50 -50 -50 -62 0 -4 11 6 25 22 14 18 24 24
25 16 0 -11 4 -9 15 5 8 10 15 14 15 8 0 -16 -60 -97 -67 -90 -4 3 -13 0 -21
-7 -13 -10 -15 -9 -9 8 7 20 1 14 -63 -63 -11 -13 -20 -21 -20 -17 0 3 -11 -7
-24 -22 -18 -20 -21 -31 -14 -41 13 -15 -10 -44 -64 -78 -21 -13 -35 -30 -33
-36 3 -7 -9 -28 -25 -47 -29 -33 -40 -59 -20 -46 6 3 10 2 10 -4 0 -5 -4 -13
-10 -16 -5 -3 -10 -17 -10 -31 0 -14 -7 -27 -15 -30 -16 -6 -30 -41 -26 -63 1
-7 0 -20 -4 -29 -5 -14 -7 -14 -15 -2 -8 12 -10 12 -10 -4 0 -11 -3 -16 -7
-12 -12 12 -51 -89 -46 -117 3 -17 -2 -35 -16 -53 -22 -28 -29 -17 -11 17 8
13 7 19 0 19 -14 0 -26 -34 -34 -102 -4 -32 -12 -60 -17 -63 -5 -4 -9 -15 -9
-27 0 -17 -2 -18 -15 -8 -13 11 -15 8 -15 -17 0 -17 -9 -38 -19 -47 -13 -12
-22 -37 -26 -75 -10 -89 -16 -112 -27 -105 -7 5 -7 1 0 -11 7 -13 4 -37 -9
-84 -11 -36 -19 -82 -19 -102 0 -20 -7 -42 -15 -49 -8 -7 -15 -19 -15 -26 0
-8 6 -11 15 -8 12 5 15 -2 15 -29 0 -19 -6 -37 -12 -39 -9 -3 -12 -26 -10 -77
3 -56 1 -71 -10 -69 -17 4 -24 -117 -8 -137 8 -9 8 -20 2 -31 -7 -12 -4 -30
10 -61 10 -24 16 -48 12 -54 -10 -18 -5 -169 8 -192 16 -30 28 -87 18 -87 -5
0 -13 12 -19 28 -9 23 -10 18 -5 -28 3 -30 9 -59 14 -65 13 -15 19 -174 7
-178 -6 -2 0 -17 13 -34 22 -30 22 -43 5 -86 -5 -13 -3 -16 8 -11 12 4 17 -4
23 -33 3 -21 17 -64 30 -95 13 -32 23 -61 22 -65 -2 -14 14 -45 38 -69 16 -15
24 -35 24 -59 0 -20 7 -51 14 -70 9 -20 11 -35 5 -35 -11 0 41 -79 65 -99 9
-8 16 -22 16 -32 0 -10 8 -20 18 -23 11 -4 30 -18 43 -32 l24 -26 -29 8 c-26
6 -27 5 -17 -14 6 -12 10 -25 9 -29 -1 -4 6 -31 15 -59 14 -41 30 -62 80 -104
84 -70 115 -109 96 -121 -20 -13 -27 -11 -34 9 -7 21 -54 76 -60 70 -3 -2 9
-20 25 -39 16 -19 29 -39 30 -46 0 -7 23 -35 51 -63 28 -28 49 -54 45 -57 -3
-3 5 -14 18 -24 14 -11 34 -40 47 -67 26 -56 121 -177 151 -193 15 -8 17 -13
8 -19 -8 -5 6 -14 38 -24 63 -21 91 -49 72 -72 -8 -8 -22 -13 -32 -11 -24 7
-23 -6 3 -29 16 -14 23 -15 26 -6 6 17 23 15 23 -3 0 -31 23 -65 45 -65 30 0
38 -11 19 -25 -14 -10 -13 -13 14 -24 22 -9 28 -18 25 -31 -8 -32 34 -77 101
-109 75 -35 83 -45 61 -68 -16 -16 -16 -17 1 -30 10 -7 29 -13 42 -13 23 0 99
-66 88 -77 -2 -3 -27 7 -55 21 -38 19 -51 22 -51 11 0 -8 5 -17 10 -20 6 -3
10 -11 10 -16 0 -6 -5 -7 -11 -3 -7 4 -3 -8 7 -25 10 -18 28 -37 39 -43 11 -6
31 -20 45 -32 14 -11 5 1 -20 27 -39 42 -42 47 -22 47 22 0 112 -74 112 -91 0
-5 -10 -9 -22 -9 l-21 0 22 -24 c13 -14 21 -29 17 -34 -3 -5 8 -22 25 -38 18
-17 32 -43 36 -67 l6 -38 26 25 c15 14 30 26 33 26 4 0 21 -27 38 -61 l31 -61
-33 7 c-27 6 -31 5 -20 -6 6 -7 12 -21 12 -30 0 -10 9 -24 19 -31 11 -8 23
-26 26 -41 4 -16 19 -34 35 -42 15 -8 32 -27 38 -42 17 -41 43 -181 45 -236 2
-30 8 -51 17 -57 13 -8 15 -96 18 -655 l2 -645 -51 0 -52 0 7 -65 c3 -36 9
-94 12 -130 4 -36 11 -65 17 -65 6 0 7 -25 2 -72 -4 -40 -8 -93 -7 -118 2
-188 2 -225 -4 -243 -4 -13 -2 -17 5 -13 8 5 11 -12 9 -56 -1 -35 4 -80 11
-101 7 -21 11 -53 8 -70 -2 -18 -1 -40 4 -49 6 -11 5 -21 -4 -30 -10 -9 -12
-22 -5 -48 11 -44 13 -85 5 -130 -4 -19 -9 -105 -12 -190 -6 -163 -17 -284
-29 -311 -5 -11 1 -23 17 -36 24 -19 41 -79 25 -89 -31 -19 16 -194 68 -252
84 -94 117 -123 131 -117 9 3 33 -6 54 -21 21 -14 45 -24 53 -21 13 5 83 -35
99 -57 5 -7 11 -5 18 7 12 21 29 22 29 2 0 -8 5 -15 12 -15 29 0 134 25 140
34 4 5 26 5 58 -1 37 -8 71 -7 123 2 46 8 79 9 90 3 11 -5 39 -5 74 1 40 8 60
8 69 0 8 -7 43 -9 91 -6 43 3 84 6 91 5 51 0 102 1 132 2 47 3 327 -17 367
-25 23 -5 44 -1 77 15 25 13 43 26 41 30 -9 15 14 32 35 25 16 -5 19 -10 10
-15 -22 -14 6 -20 133 -29 143 -10 217 -1 291 34 54 25 111 75 86 75 -9 0 -8
6 5 20 10 11 24 20 32 20 7 0 13 9 13 19 0 22 19 39 21 19 1 -7 5 9 10 37 4
27 14 54 22 60 17 12 28 88 12 81 -8 -3 -11 51 -11 186 1 173 -1 190 -17 200
-16 9 -17 11 -3 21 31 24 42 177 12 177 -6 0 -6 4 2 9 18 11 29 281 12 281 -7
0 -5 10 4 29 11 20 12 31 4 39 -13 13 -12 507 2 565 6 29 4 41 -7 53 -13 12
-14 22 -6 48 6 18 7 51 4 72 -6 35 -10 39 -35 37 -24 -2 -27 1 -25 25 2 15 0
32 -3 38 -4 5 -7 83 -6 172 1 156 1 162 21 162 11 0 29 7 39 17 17 15 18 14
18 -18 1 -28 2 -31 11 -16 7 13 5 25 -8 47 -20 35 -33 39 -33 10 0 -11 -5 -20
-11 -20 -7 0 -10 12 -6 33 3 21 -2 46 -14 72 -21 43 -25 95 -8 112 8 8 8 13 0
17 -12 8 -14 204 -2 246 7 24 8 23 24 -18 19 -47 23 -127 7 -137 -5 -3 -10
-21 -9 -38 0 -18 3 -26 6 -19 10 25 22 10 33 -43 6 -30 13 -55 15 -55 2 0 1
30 -2 68 -2 37 -1 85 4 107 5 22 6 51 2 65 -4 14 -8 18 -9 10 -2 -24 -18 22
-20 61 -4 65 0 88 18 105 14 15 17 33 14 118 -9 271 -4 394 16 382 4 -2 8 20
8 50 0 32 5 58 12 63 6 4 21 33 32 66 11 32 26 66 34 74 15 18 76 167 76 187
0 7 11 37 23 66 13 29 22 59 19 66 -4 14 69 115 99 136 10 6 39 48 65 91 25
44 64 98 85 120 22 22 42 48 45 58 6 20 20 22 27 5 4 -10 7 -10 18 0 10 9 10
12 0 12 -7 0 -10 4 -7 9 4 5 1 11 -6 13 -6 2 10 28 39 59 27 30 60 77 73 103
12 27 38 63 56 82 19 18 34 40 34 47 0 19 26 40 39 33 6 -4 19 11 31 33 30 59
66 110 106 149 45 44 237 303 266 360 6 12 16 22 22 22 12 1 60 73 70 107 4
12 16 25 27 28 21 7 27 53 8 72 -8 8 -6 19 5 41 9 17 16 38 16 47 0 8 6 15 13
15 21 0 107 224 107 278 0 12 9 41 20 65 33 72 51 135 45 160 -4 15 2 39 15
65 12 23 20 49 17 56 -6 15 39 79 71 104 14 10 14 16 4 32 -16 27 -15 40 4 40
13 0 15 20 15 143 0 78 1 178 2 222 1 44 0 103 -1 130 -1 28 -2 66 -1 85 3
118 -9 338 -20 358 -6 12 -13 50 -15 85 -2 40 -11 77 -25 105 -12 23 -19 47
-16 52 9 15 -15 151 -45 249 -16 53 -38 128 -49 168 -16 54 -31 82 -61 113
-22 23 -40 37 -40 32 0 -19 -38 0 -44 21 -9 35 -7 40 10 26 15 -12 16 -11 9
11 -36 114 -141 314 -246 472 -60 88 -79 109 -79 86 0 -7 -9 -2 -20 12 -11 14
-18 30 -16 36 3 6 -6 16 -20 23 -26 11 -34 37 -9 27 30 -11 14 4 -24 23 -23
12 -43 32 -49 48 -13 33 -72 103 -72 85 0 -24 -18 -11 -93 66 -122 124 -273
237 -302 226 -10 -4 -18 3 -24 20 -19 49 -134 136 -181 136 -11 0 -19 5 -17
12 4 21 -293 181 -318 172 -10 -4 -26 3 -41 17 -15 14 -38 24 -57 25 -18 0
-68 15 -111 32 -78 32 -192 61 -486 126 -127 28 -159 32 -175 22 -16 -10 -29
-10 -60 0 -22 7 -47 12 -55 11 -8 0 -34 -2 -57 -4z m2468 -4316 c-6 -15 -17
-27 -25 -27 -15 0 -10 14 18 60 14 21 18 -2 7 -33z m-5131 -18 c0 -5 -4 -9
-10 -9 -5 0 -10 7 -10 16 0 8 5 12 10 9 6 -3 10 -10 10 -16z m4576 -806 c-11
-11 -17 4 -9 23 7 18 8 18 11 1 2 -10 1 -21 -2 -24z m-382 -475 c-6 -30 -50
-108 -61 -108 -12 0 10 75 30 106 28 43 38 43 31 2z m-207 -324 c4 -10 -8 -30
-33 -55 -44 -45 -59 -50 -42 -14 6 14 15 25 20 25 5 0 7 4 4 8 -6 11 22 52 35
52 5 0 12 -7 16 -16z m-170 -316 c-3 -8 -6 -5 -6 6 -1 11 2 17 5 13 3 -3 4
-12 1 -19z m-46 -363 c8 -45 8 -64 -2 -82 -11 -20 -10 -33 1 -71 8 -26 14 -69
14 -97 1 -44 -2 -50 -19 -50 -16 0 -20 7 -22 40 -1 22 -5 79 -9 126 -4 57 -3
88 4 93 7 4 8 28 5 64 -7 75 13 59 28 -23z m-2411 -1385 c0 -44 -2 -50 -21
-50 -22 0 -22 14 1 75 14 38 20 31 20 -25z m0 -334 l0 -41 -20 25 c-11 14 -19
39 -18 58 1 31 2 31 20 16 12 -12 18 -31 18 -58z m0 -496 c0 -5 -2 -10 -4 -10
-3 0 -8 5 -11 10 -3 6 -1 10 4 10 6 0 11 -4 11 -10z m0 -765 c0 -14 -4 -25
-10 -25 -5 0 -10 11 -10 25 0 14 5 25 10 25 6 0 10 -11 10 -25z"/>
<path d="M9548 10023 c-10 -2 -15 -10 -11 -19 3 -10 -2 -14 -19 -14 -13 0 -29
-9 -35 -20 -7 -10 -31 -25 -54 -31 -38 -12 -64 -42 -52 -61 2 -5 -4 -8 -14 -8
-10 -1 -29 -15 -43 -32 -43 -54 -73 -79 -128 -105 -36 -17 -52 -30 -48 -39 3
-8 0 -14 -7 -14 -7 0 -23 -16 -37 -35 -22 -31 -29 -35 -57 -30 -18 3 -33 2
-33 -3 0 -12 -66 -82 -78 -82 -5 0 -15 -7 -22 -15 -7 -9 -33 -25 -56 -36 -40
-18 -43 -21 -34 -44 7 -20 6 -23 -6 -18 -20 8 -94 -26 -94 -44 0 -12 -12 -17
-32 -14 -5 0 -8 -3 -8 -8 0 -12 -58 -70 -63 -64 -6 6 -65 -36 -112 -80 -22
-20 -45 -37 -51 -37 -6 0 -19 -9 -30 -21 -18 -20 -18 -21 6 -40 29 -22 42 -23
57 -8 12 12 39 29 83 51 29 15 110 96 110 110 0 5 5 6 10 3 6 -3 15 -3 21 1 8
4 7 9 -2 15 -10 6 -6 9 14 9 21 0 27 5 27 21 0 14 4 18 13 12 18 -11 37 -12
37 -2 0 5 6 9 14 9 7 0 16 9 19 20 3 11 11 19 19 18 7 -2 12 3 11 10 -2 6 1
12 6 12 5 0 12 -6 14 -12 3 -8 6 -6 6 4 1 11 6 15 15 12 9 -3 29 10 49 31 20
21 40 34 45 31 6 -3 14 4 18 16 10 33 27 45 54 41 16 -2 20 0 12 5 -9 6 -4 14
18 30 16 13 30 29 30 37 0 8 6 15 14 15 7 0 16 9 19 20 3 13 10 18 21 14 12
-5 16 0 16 20 0 25 20 38 20 14 0 -7 5 -5 11 5 5 9 16 17 24 17 18 0 38 37 29
52 -4 7 -3 8 4 4 7 -4 12 -14 12 -23 0 -18 15 -8 15 10 0 7 8 11 18 11 11 -1
17 5 17 18 0 12 4 17 12 12 8 -5 9 -2 4 12 -17 40 -19 57 -8 50 7 -4 12 -15
12 -25 0 -24 26 -58 37 -47 4 5 2 11 -4 13 -7 3 -13 11 -13 19 0 9 4 13 9 10
5 -4 17 -3 26 0 14 6 13 9 -6 30 -12 13 -19 27 -15 31 4 4 16 -3 26 -17 19
-24 26 -18 21 18 -1 8 7 16 18 19 14 3 21 14 21 29 0 13 5 24 10 24 6 0 10 8
10 18 1 15 2 15 13 1 18 -24 38 -12 31 18 -5 18 -3 24 4 19 7 -4 10 2 9 14 -1
11 -1 19 -2 19 0 -1 -8 -3 -17 -6z"/>
<path d="M9600 10009 c0 -5 5 -7 10 -4 6 3 10 8 10 11 0 2 -4 4 -10 4 -5 0
-10 -5 -10 -11z"/>
<path d="M502 8645 c-6 -14 -10 -25 -8 -25 2 0 11 11 20 25 9 14 13 25 8 25
-5 0 -14 -11 -20 -25z"/>
<path d="M591 8634 c-8 -10 -16 -12 -20 -6 -4 7 -13 5 -25 -4 -20 -14 -20 -14
0 -16 10 0 29 0 42 1 13 1 22 -4 22 -12 0 -9 16 -17 43 -21 23 -4 59 -18 80
-32 32 -21 43 -24 67 -16 21 8 31 7 42 -4 9 -9 44 -17 86 -21 40 -3 72 -10 72
-14 0 -5 6 -6 13 -3 7 2 44 -11 82 -31 50 -27 70 -33 76 -24 6 10 11 10 21 1
7 -6 26 -9 41 -8 15 2 30 -1 33 -6 3 -5 12 -7 20 -4 7 3 23 -8 35 -25 16 -23
27 -30 46 -26 13 2 26 1 28 -3 3 -5 22 -8 42 -8 21 0 39 -5 41 -11 2 -6 13
-11 25 -11 12 0 50 -13 85 -30 61 -29 63 -29 75 -10 13 22 28 27 24 8 -3 -15
74 -58 115 -63 17 -3 35 -10 39 -16 5 -8 8 -8 13 0 5 8 13 8 26 1 10 -5 30
-10 43 -10 14 0 30 -7 37 -15 7 -8 18 -15 24 -15 6 0 24 -7 40 -15 16 -9 31
-13 33 -11 5 5 130 -30 146 -41 7 -5 23 -8 37 -8 21 0 25 5 25 30 0 25 -7 33
-45 52 -25 12 -54 22 -66 22 -11 1 -29 9 -40 19 -11 10 -40 18 -69 21 -27 2
-58 7 -68 13 -10 5 -27 6 -38 3 -13 -4 -19 -2 -17 6 2 7 -5 15 -16 17 -11 2
-16 0 -12 -7 13 -21 -12 -11 -28 12 -12 15 -18 18 -22 10 -7 -16 -24 -17 -24
-2 0 14 -26 40 -33 32 -3 -3 -13 2 -22 10 -11 12 -22 14 -39 8 -17 -7 -25 -5
-35 11 -7 12 -18 17 -28 14 -9 -4 -21 1 -28 11 -7 9 -23 18 -36 19 -58 7 -82
13 -89 24 -4 7 -18 11 -31 10 -48 -4 -80 0 -74 10 3 6 -3 10 -14 10 -11 0 -22
4 -25 9 -3 5 -26 8 -51 8 -25 0 -50 4 -56 10 -15 15 -48 4 -60 -19 -6 -11 -13
-17 -16 -14 -3 3 0 12 7 21 7 8 9 22 6 31 -6 15 -8 15 -32 -1 -14 -9 -29 -14
-32 -10 -4 3 0 10 8 15 16 10 8 13 -27 11 -11 -1 -24 3 -28 8 -8 15 -48 14
-63 -1 -9 -9 -12 -8 -12 4 0 9 5 18 12 20 9 3 9 6 0 12 -7 4 -12 3 -12 -3 0
-12 -32 -2 -42 13 -5 8 -11 7 -20 -2 -16 -16 -31 -16 -22 1 4 6 -7 -1 -24 -17
-18 -17 -32 -25 -32 -20 0 6 11 21 24 33 14 13 22 29 19 37 -7 19 -21 18 -19
-2 0 -9 -5 -19 -11 -21 -7 -3 -13 2 -13 10 0 12 -19 27 -35 27 -1 0 -5 -14 -9
-31 -3 -18 -10 -28 -17 -24 -6 4 -8 18 -5 31 7 26 -11 33 -32 12 -9 -9 -19 -7
-43 11 -17 12 -33 20 -36 17 -4 -3 0 -6 7 -6 31 0 -11 -24 -45 -27 -36 -2 -48
13 -19 24 13 5 13 7 2 14 -19 12 -31 10 -47 -7z"/>
<path d="M10005 7963 c-11 -10 -36 -19 -55 -20 -46 -3 -62 -7 -78 -17 -17 -10
-85 -11 -139 -2 -33 6 -43 5 -43 -6 0 -7 -10 -14 -22 -15 -13 -1 -38 -4 -57
-7 -24 -4 -40 -1 -53 10 -14 13 -21 14 -32 5 -19 -16 -148 -28 -199 -20 -30 5
-40 2 -47 -11 -5 -10 -6 -20 -3 -24 3 -3 1 -6 -4 -6 -6 0 -13 5 -15 10 -2 6
-16 13 -33 16 -33 6 -164 -14 -182 -29 -9 -6 -13 -5 -13 3 0 10 -18 11 -77 5
-43 -4 -100 -9 -126 -10 -26 -1 -50 -5 -53 -8 -12 -12 10 -58 30 -62 49 -12
144 -11 184 2 23 8 47 11 53 7 6 -4 16 0 21 7 7 10 11 11 14 2 3 -7 12 -9 20
-6 7 3 11 9 8 14 -3 5 0 9 5 9 6 0 11 -4 11 -10 0 -14 28 -12 32 2 3 9 10 7
23 -6 13 -12 20 -15 23 -7 3 9 7 9 18 0 11 -9 18 -8 29 1 9 7 18 10 22 7 3 -4
12 -2 20 4 10 9 13 8 13 0 0 -7 4 -10 9 -6 5 3 12 1 15 -4 7 -10 71 -4 98 10
11 6 18 5 21 -4 3 -9 7 -9 19 1 9 7 46 14 83 16 41 1 70 7 75 16 4 7 13 9 19
5 7 -4 19 -1 27 6 11 9 18 9 27 0 9 -9 16 -6 30 11 15 18 18 19 13 4 -5 -14
-3 -17 11 -11 10 4 30 7 46 6 20 -1 30 5 36 21 6 16 10 18 16 9 4 -8 2 -16 -5
-21 -9 -5 -9 -9 -1 -14 6 -4 11 -2 11 4 0 8 9 10 24 6 16 -4 26 -1 30 10 3 8
10 13 15 10 5 -3 12 9 16 27 4 17 9 26 12 19 3 -7 0 -25 -5 -41 -6 -16 -6 -34
-1 -42 9 -15 13 -6 10 24 -1 9 3 17 8 17 6 0 11 -4 11 -10 0 -5 7 -10 16 -10
12 0 15 7 12 30 -5 36 14 35 22 -1 l6 -24 12 22 c10 18 17 20 40 14 25 -8 28
-6 28 13 -1 11 4 21 11 21 6 0 15 3 19 8 12 12 24 8 24 -7 0 -8 -6 -17 -12
-19 -7 -3 -1 -6 15 -6 15 -1 26 2 26 7 -4 22 3 34 16 28 9 -3 15 0 15 8 0 20
-27 27 -34 10 -5 -14 -8 -14 -22 0 -12 13 -20 14 -36 5 -20 -11 -57 -9 -88 5
-9 4 -24 -1 -35 -11z m-318 -95 c-3 -8 -6 -5 -6 6 -1 11 2 17 5 13 3 -3 4 -12
1 -19z"/>
<path d="M10240 7930 c0 -5 5 -10 10 -10 6 0 10 5 10 10 0 6 -4 10 -10 10 -5
0 -10 -4 -10 -10z"/>
<path d="M2530 7539 c0 -5 5 -7 10 -4 6 3 10 8 10 11 0 2 -4 4 -10 4 -5 0 -10
-5 -10 -11z"/>
<path d="M2526 7425 c4 -8 8 -15 10 -15 2 0 4 7 4 15 0 8 -4 15 -10 15 -5 0
-7 -7 -4 -15z"/>
<path d="M1270 7390 c10 -6 1 -9 -30 -9 -64 -1 -80 -3 -80 -12 0 -5 -13 -6
-29 -3 -23 5 -32 1 -50 -22 l-23 -29 7 28 c6 22 4 27 -10 27 -10 0 -24 -8 -31
-17 -7 -10 -16 -14 -20 -10 -5 4 -2 12 5 16 7 5 -14 7 -50 5 -52 -2 -66 -7
-81 -26 l-18 -23 0 22 c0 12 5 23 11 25 6 2 -10 3 -36 3 -27 0 -49 -5 -54 -14
-7 -11 -9 -11 -14 0 -3 9 -8 5 -15 -13 -6 -14 -16 -29 -21 -33 -15 -9 -14 1 5
37 18 35 5 63 -18 39 -10 -11 -10 -13 0 -7 15 9 16 -10 1 -20 -6 -3 -14 -2
-18 3 -3 5 -14 12 -23 16 -15 5 -18 1 -18 -28 0 -19 -4 -35 -10 -35 -10 0 -14
14 -11 38 3 18 -29 15 -36 -4 -4 -12 -14 -14 -36 -10 -23 5 -33 1 -44 -14 -7
-10 -20 -17 -27 -14 -8 3 -17 1 -21 -5 -3 -6 -10 -11 -16 -11 -14 0 -11 28 4
33 7 4 6 6 -5 6 -9 1 -23 4 -31 7 -9 3 -16 -3 -20 -17 -4 -13 -11 -20 -20 -16
-7 3 -18 -3 -24 -12 -9 -14 -7 -17 11 -17 11 0 24 5 28 10 5 8 13 8 26 0 10
-6 41 -10 68 -9 28 2 69 -2 92 -8 33 -9 44 -8 66 6 19 13 31 15 45 8 10 -6 21
-8 24 -5 18 18 256 22 302 4 20 -7 27 -7 31 4 3 8 15 14 27 14 12 0 47 2 78 5
48 5 58 3 73 -15 11 -13 23 -17 34 -13 48 21 186 26 286 11 40 -6 45 -5 51 15
5 15 10 18 15 9 8 -13 130 -31 130 -19 0 4 14 3 32 -2 21 -6 34 -5 38 2 4 5
18 7 31 4 14 -3 36 -2 51 4 15 5 29 6 34 1 10 -10 52 -11 224 -7 111 2 127 10
98 50 -13 18 -41 23 -141 28 -26 2 -50 6 -52 10 -3 3 -24 2 -47 -3 -24 -5 -59
-10 -78 -11 -19 -1 -41 -6 -49 -11 -10 -6 -16 -6 -19 2 -2 7 -13 12 -25 12
-16 0 -18 -3 -8 -9 8 -5 9 -11 3 -15 -5 -3 -15 1 -22 9 -14 17 -55 21 -45 5 9
-14 -2 -12 -29 5 -13 9 -28 15 -32 14 -5 -1 -17 1 -28 6 -10 5 -21 4 -25 -3
-3 -5 -23 -10 -43 -9 -20 0 -35 3 -33 6 6 10 -112 14 -156 6 -13 -3 -26 0 -30
6 -4 8 -13 7 -30 -2 -34 -18 -77 -19 -83 -3 -3 8 -11 14 -18 14 -9 0 -9 -3 2
-10z"/>
<path d="M310 7320 c0 -5 4 -10 9 -10 6 0 13 5 16 10 3 6 -1 10 -9 10 -9 0
-16 -4 -16 -10z"/>
<path d="M2560 6728 c0 -42 1 -42 14 -18 8 16 10 31 4 43 -14 27 -18 21 -18
-25z"/>
<path d="M8776 6216 c-8 -31 -1 -49 23 -61 11 -6 35 -18 55 -29 20 -10 34 -22
31 -26 -5 -7 84 -31 118 -31 9 0 17 -7 17 -15 0 -8 5 -14 10 -14 6 0 10 5 10
10 0 6 5 10 10 10 6 0 10 -9 10 -20 0 -22 15 -27 26 -8 6 9 10 6 14 -10 3 -13
9 -23 14 -22 5 1 12 -4 17 -11 7 -12 27 -19 62 -22 9 -1 19 -9 23 -19 6 -19
57 -48 86 -48 10 0 18 -7 18 -16 0 -10 6 -13 19 -9 10 3 29 1 42 -4 13 -5 20
-10 14 -11 -18 -2 57 -30 81 -30 12 0 26 -4 29 -10 9 -15 23 -12 45 10 11 11
20 16 20 11 0 -6 -4 -13 -10 -16 -21 -13 -9 -34 23 -40 17 -3 42 -11 55 -18
18 -8 28 -8 44 2 18 11 20 11 14 -4 -3 -9 -6 -19 -6 -21 0 -3 -6 -2 -12 2 -7
4 -9 3 -5 -1 4 -5 15 -10 25 -11 9 -2 18 -8 20 -14 3 -7 11 -5 23 6 14 12 19
13 19 4 0 -9 6 -8 20 5 11 10 20 13 20 7 0 -13 -35 -34 -42 -26 -3 2 -3 -8 0
-23 5 -26 5 -26 13 -5 5 12 13 22 19 22 6 0 8 -5 4 -11 -3 -6 0 -15 7 -20 10
-6 19 1 32 24 l18 32 -5 -32 c-4 -24 -2 -33 8 -33 8 0 16 6 19 13 3 8 9 6 19
-7 10 -13 19 -16 29 -10 18 11 69 14 69 3 0 -4 -7 -12 -16 -17 -15 -8 -15 -10
1 -16 10 -3 23 -2 30 4 7 6 19 9 26 8 8 -2 14 4 14 12 0 10 -8 14 -23 12 -13
-2 -21 1 -20 8 2 7 -15 18 -36 26 -22 8 -46 24 -54 35 -12 17 -22 20 -48 16
-22 -4 -34 -1 -38 8 -2 7 -24 16 -48 20 -53 8 -120 40 -154 74 -21 21 -27 23
-35 11 -8 -12 -12 -12 -16 -2 -2 6 -17 12 -32 12 -29 0 -65 21 -67 39 -1 6 -2
16 -3 22 0 6 -10 9 -22 6 -25 -7 -81 11 -92 30 -4 7 -17 13 -28 13 -11 0 -36
12 -55 26 -34 26 -35 26 -55 8 -14 -13 -18 -14 -14 -3 6 17 -43 58 -77 64 -12
3 -24 8 -27 12 -3 5 -10 8 -16 9 -28 2 -75 17 -75 24 0 10 -67 50 -84 50 -7 0
-40 13 -72 30 -32 16 -62 30 -65 30 -4 0 -10 -11 -13 -24z m829 -416 c-3 -5
-11 -10 -16 -10 -6 0 -7 5 -4 10 3 6 11 10 16 10 6 0 7 -4 4 -10z"/>
<path d="M2350 5881 c-42 -22 -88 -42 -102 -44 -17 -3 -64 -32 -92 -58 -10
-10 -23 -16 -28 -13 -4 3 -8 -2 -8 -10 0 -10 -8 -15 -22 -13 -17 1 -22 -3 -20
-16 3 -15 0 -17 -15 -9 -13 7 -28 6 -50 -3 -17 -7 -34 -11 -37 -8 -3 4 -6 1
-6 -5 0 -7 -9 -12 -19 -12 -10 0 -21 -7 -25 -15 -3 -8 -12 -15 -21 -15 -8 0
-15 -5 -15 -11 0 -6 -7 -9 -15 -5 -8 3 -15 1 -15 -3 0 -5 -9 -7 -21 -4 -12 3
-24 2 -28 -4 -11 -16 -76 -51 -88 -46 -6 2 -14 -5 -18 -16 -3 -11 -15 -23 -26
-26 -10 -4 -19 -12 -19 -18 0 -7 -4 -6 -10 3 -6 10 -10 11 -10 3 0 -7 -8 -13
-19 -13 -10 0 -32 -13 -49 -30 -18 -16 -36 -30 -42 -30 -5 0 -14 -9 -20 -19
-6 -13 -17 -17 -30 -14 -15 4 -20 0 -20 -15 0 -12 -5 -24 -12 -28 -8 -5 -9 0
-5 15 5 22 5 22 -14 5 -10 -9 -29 -22 -41 -28 -13 -6 -28 -23 -35 -36 -11 -22
-19 -15 -14 13 2 14 -17 7 -23 -9 -3 -9 -13 -14 -20 -11 -16 7 -30 -19 -19
-36 4 -7 0 -6 -10 1 -14 12 -15 10 -10 -22 3 -23 2 -36 -5 -36 -6 0 -12 17
-14 37 -2 20 -9 38 -15 41 -7 2 -13 -1 -13 -8 0 -6 5 -8 10 -5 6 3 10 -1 10
-9 0 -18 -17 -30 -22 -15 -2 5 -11 7 -21 3 -16 -6 -16 -8 -2 -30 24 -37 17
-52 -10 -20 l-24 30 -6 -26 c-4 -16 -16 -29 -31 -32 -17 -5 -24 -13 -24 -31 0
-16 -6 -25 -15 -25 -8 0 -15 -7 -15 -16 0 -13 -3 -14 -15 -4 -8 7 -12 16 -9
21 3 5 2 9 -3 9 -16 0 -28 -15 -28 -35 0 -11 -5 -19 -10 -18 -6 1 -11 -7 -12
-17 -1 -13 4 -16 18 -13 10 3 19 12 19 20 0 10 6 12 21 8 14 -5 28 0 44 15 13
12 42 24 65 27 33 5 46 12 59 34 9 16 22 29 29 29 14 0 58 27 81 48 43 41 124
77 187 81 7 1 11 9 10 18 0 10 4 18 9 18 6 0 30 15 54 32 34 25 47 30 61 23
27 -15 38 -12 45 10 3 11 12 20 18 20 7 0 23 9 37 20 14 11 33 20 43 20 9 0
17 5 17 10 0 6 7 10 15 10 8 0 15 4 15 9 0 5 20 12 45 15 44 7 51 15 46 53 -1
8 5 10 14 7 18 -7 105 15 105 27 0 4 10 11 22 15 12 3 26 10 32 15 58 46 73
55 83 52 11 -4 92 32 103 46 8 10 88 51 100 51 6 0 20 9 32 20 21 19 21 20 3
40 -19 21 -40 24 -65 11z m-320 -181 c0 -5 -4 -10 -10 -10 -5 0 -10 5 -10 10
0 6 5 10 10 10 6 0 10 -4 10 -10z"/>
<path d="M10055 5610 c3 -5 8 -10 11 -10 2 0 4 5 4 10 0 6 -5 10 -11 10 -5 0
-7 -4 -4 -10z"/>
<path d="M934 5099 c-3 -6 -2 -15 3 -20 5 -5 9 -1 10 11 2 22 -2 25 -13 9z"/>
<path d="M3399 5001 c7 -5 17 -14 21 -21 6 -9 11 -7 19 9 11 19 9 21 -21 21
-23 0 -29 -3 -19 -9z"/>
<path d="M3692 4613 c2 -10 11 -19 21 -21 24 -5 21 15 -4 28 -18 10 -20 9 -17
-7z"/>
<path d="M4281 3543 c0 -10 4 -27 9 -38 7 -17 9 -15 9 12 1 17 -3 35 -9 38 -5
3 -10 -2 -9 -12z"/>
<path d="M4270 3458 c0 -9 5 -20 10 -23 13 -8 13 5 0 25 -8 13 -10 13 -10 -2z"/>
<path d="M6770 3071 c0 -5 5 -13 10 -16 6 -3 10 -2 10 4 0 5 -4 13 -10 16 -5
3 -10 2 -10 -4z"/>
<path d="M6732 2745 c0 -16 2 -22 5 -12 2 9 2 23 0 30 -3 6 -5 -1 -5 -18z"/>
<path d="M6738 2414 c-12 -11 5 -44 23 -44 18 0 19 1 3 25 -18 27 -18 28 -26
19z"/>
<path d="M6772 2265 c0 -16 2 -22 5 -12 2 9 2 23 0 30 -3 6 -5 -1 -5 -18z"/>
<path d="M6800 2225 c0 -28 4 -44 10 -40 6 3 10 21 10 40 0 19 -4 37 -10 40
-6 4 -10 -12 -10 -40z"/>
<path d="M6722 2210 c0 -19 2 -27 5 -17 2 9 2 25 0 35 -3 9 -5 1 -5 -18z"/>
<path d="M6760 2169 c0 -5 5 -7 10 -4 6 3 10 8 10 11 0 2 -4 4 -10 4 -5 0 -10
-5 -10 -11z"/>
<path d="M4227 1613 c-4 -3 -7 -11 -7 -17 0 -6 5 -5 12 2 6 6 9 14 7 17 -3 3
-9 2 -12 -2z"/>
</g>
</svg>
