<?xml version="1.0" standalone="no"?>
<!DOCTYPE svg PUBLIC "-//W3C//DTD SVG 20010904//EN"
 "http://www.w3.org/TR/2001/REC-SVG-20010904/DTD/svg10.dtd">
<svg version="1.0" xmlns="http://www.w3.org/2000/svg"
 width="1280.000000pt" height="889.000000pt" viewBox="0 0 1280.000000 889.000000"
 preserveAspectRatio="xMidYMid meet">
<metadata>
Created by potrace 1.15, written by Peter Selinger 2001-2017
</metadata>
<g transform="translate(0.000000,889.000000) scale(0.100000,-0.100000)"
fill="#e91e63" stroke="none">
<path d="M6330 8881 c-76 -25 -127 -70 -159 -141 -20 -44 -21 -60 -21 -1115 0
-1055 1 -1071 21 -1115 44 -97 117 -144 224 -145 59 0 77 4 118 28 60 36 103
94 117 160 8 37 10 357 8 1107 -3 974 -4 1057 -20 1086 -29 53 -68 94 -111
116 -44 22 -137 32 -177 19z"/>
<path d="M1815 6966 c-55 -25 -98 -69 -120 -123 -22 -51 -19 -148 5 -197 13
-28 268 -290 777 -798 l758 -756 60 -18 c143 -41 276 41 307 189 10 48 9 64
-6 114 -18 57 -31 71 -769 812 -602 603 -762 758 -802 777 -67 32 -143 32
-210 0z"/>
<path d="M10935 6714 c-46 -14 -104 -69 -808 -772 -534 -533 -764 -770 -778
-800 -17 -35 -20 -57 -17 -117 3 -62 8 -80 33 -117 50 -70 104 -102 184 -106
127 -7 82 -46 923 796 756 756 757 757 773 816 55 191 -119 359 -310 300z"/>
<path d="M5935 4769 c-616 -23 -1291 -99 -1800 -203 l-110 -22 -3 -1346 -2
-1345 -93 -5 c-147 -8 -232 -59 -289 -176 l-33 -67 0 -681 0 -681 35 -69 c25
-49 49 -79 85 -106 97 -74 -131 -68 2705 -66 l2555 3 47 24 c61 30 120 89 150
149 l23 47 0 700 0 700 -23 46 c-31 63 -86 117 -152 148 -45 21 -74 26 -157
29 l-103 4 0 1323 0 1322 -57 16 c-92 26 -271 65 -436 96 -716 137 -1511 191
-2342 160z"/>
<path d="M180 2491 c-116 -36 -189 -142 -177 -257 10 -101 82 -186 179 -213
32 -9 312 -11 1108 -9 l1065 3 40 22 c108 58 158 178 123 294 -15 51 -69 114
-122 142 l-41 22 -1075 2 c-591 1 -1086 -2 -1100 -6z"/>
<path d="M10414 2301 c-214 -97 -176 -418 55 -461 59 -11 2035 -14 2115 -4
148 21 245 168 205 311 -17 62 -97 147 -154 162 -28 8 -368 11 -1110 11 -1020
0 -1072 -1 -1111 -19z"/>
</g>
</svg>
